<svg width="463" height="403" viewBox="0 0 463 403" fill="none" xmlns="http://www.w3.org/2000/svg">
<g clip-path="url(#clip0)">
<path d="M463 398.004L131.563 403L0 379.686H205.387L463 398.004Z" fill="#21202E"/>
<path d="M93.7921 382.457C93.7921 382.457 94.5677 366.209 110.466 368.097L93.7921 382.457Z" fill="#3F3D56"/>
<path d="M89.3 366.995C93.6946 366.995 97.257 363.433 97.257 359.039C97.257 354.645 93.6946 351.083 89.3 351.083C84.9054 351.083 81.343 354.645 81.343 359.039C81.343 363.433 84.9054 366.995 89.3 366.995Z" fill="#551B8B"/>
<path d="M90.2513 372.436H88.0052V388.157H90.2513V372.436Z" fill="#3F3D56"/>
<path d="M355.833 385.232C355.833 385.232 356.609 368.984 372.507 370.873L355.833 385.232Z" fill="#3F3D56"/>
<path d="M351.341 369.77C355.736 369.77 359.298 366.208 359.298 361.814C359.298 357.42 355.736 353.858 351.341 353.858C346.946 353.858 343.384 357.42 343.384 361.814C343.384 366.208 346.946 369.77 351.341 369.77Z" fill="#551B8B"/>
<path d="M352.292 375.212H350.046V390.932H352.292V375.212Z" fill="#3F3D56"/>
<path d="M394.14 388.008C394.14 388.008 394.915 371.76 410.814 373.648L394.14 388.008Z" fill="#3F3D56"/>
<path d="M389.648 372.546C394.042 372.546 397.605 368.984 397.605 364.59C397.605 360.196 394.042 356.634 389.648 356.634C385.253 356.634 381.691 360.196 381.691 364.59C381.691 368.984 385.253 372.546 389.648 372.546Z" fill="#551B8B"/>
<path d="M390.599 377.987H388.353V393.707H390.599V377.987Z" fill="#3F3D56"/>
<path d="M156.527 374.685C156.527 374.685 157.302 358.437 173.2 360.326L156.527 374.685Z" fill="#3F3D56"/>
<path d="M152.034 359.223C156.429 359.223 159.991 355.661 159.991 351.267C159.991 346.873 156.429 343.311 152.034 343.311C147.64 343.311 144.077 346.873 144.077 351.267C144.077 355.661 147.64 359.223 152.034 359.223Z" fill="#551B8B"/>
<path d="M152.986 364.665H150.74V380.385H152.986V364.665Z" fill="#3F3D56"/>
<path d="M38.275 377.461C38.275 377.461 39.0505 361.213 54.949 363.101L38.275 377.461Z" fill="#3F3D56"/>
<path d="M33.7828 361.999C38.1774 361.999 41.7399 358.437 41.7399 354.043C41.7399 349.649 38.1774 346.087 33.7828 346.087C29.3883 346.087 25.8258 349.649 25.8258 354.043C25.8258 358.437 29.3883 361.999 33.7828 361.999Z" fill="#551B8B"/>
<path d="M34.7342 367.44H32.4881V383.161H34.7342V367.44Z" fill="#3F3D56"/>
<path d="M230.661 349.227C278.54 349.227 317.354 310.418 317.354 262.545C317.354 214.673 278.54 175.864 230.661 175.864C182.782 175.864 143.968 214.673 143.968 262.545C143.968 310.418 182.782 349.227 230.661 349.227Z" fill="#353349"/>
<path d="M176.082 269.504C178.235 266.926 180.928 264.853 183.97 263.431C187.013 262.008 190.33 261.271 193.689 261.271C197.047 261.271 200.365 262.008 203.407 263.431C206.449 264.853 209.142 266.926 211.295 269.504C214.979 265.987 217.526 261.448 218.606 256.471C219.687 251.494 219.252 246.308 217.357 241.581C215.463 236.853 212.196 232.801 207.977 229.948C203.759 227.094 198.782 225.568 193.689 225.568C188.595 225.568 183.619 227.094 179.4 229.948C175.182 232.801 171.914 236.853 170.02 241.581C168.126 246.308 167.691 251.494 168.771 256.471C169.851 261.448 172.398 265.987 176.082 269.504Z" fill="white"/>
<path d="M244.927 269.504C247.08 266.926 249.772 264.853 252.815 263.431C255.857 262.008 259.175 261.271 262.533 261.271C265.892 261.271 269.209 262.008 272.252 263.431C275.294 264.853 277.987 266.926 280.14 269.504C283.824 265.987 286.37 261.448 287.451 256.471C288.531 251.494 288.096 246.308 286.202 241.581C284.307 236.853 281.04 232.801 276.822 229.948C272.603 227.094 267.627 225.568 262.533 225.568C257.44 225.568 252.463 227.094 248.245 229.948C244.026 232.801 240.759 236.853 238.865 241.581C236.97 246.308 236.535 251.494 237.616 256.471C238.696 261.448 241.242 265.987 244.927 269.504Z" fill="white"/>
<path d="M184.991 251.152C189.835 251.152 193.762 247.225 193.762 242.382C193.762 237.538 189.835 233.612 184.991 233.612C180.146 233.612 176.22 237.538 176.22 242.382C176.22 247.225 180.146 251.152 184.991 251.152Z" fill="#3F3D56"/>
<path d="M253.833 251.152C258.677 251.152 262.604 247.225 262.604 242.382C262.604 237.538 258.677 233.612 253.833 233.612C248.988 233.612 245.062 237.538 245.062 242.382C245.062 247.225 248.988 251.152 253.833 251.152Z" fill="#3F3D56"/>
<path d="M168.191 294.414C173.824 294.414 178.39 289.848 178.39 284.216C178.39 278.584 173.824 274.018 168.191 274.018C162.558 274.018 157.992 278.584 157.992 284.216C157.992 289.848 162.558 294.414 168.191 294.414Z" fill="#FF6584"/>
<path d="M285.481 294.414C291.114 294.414 295.68 289.848 295.68 284.216C295.68 278.584 291.114 274.018 285.481 274.018C279.848 274.018 275.282 278.584 275.282 284.216C275.282 289.848 279.848 294.414 285.481 294.414Z" fill="#FF6584"/>
<path d="M226.836 263.82L219.187 296.963L231.935 284.216L226.836 263.82Z" fill="#FF6584"/>
<path d="M266.141 391.293L257.456 384.005L257.658 391.293H254.961L254.746 383.587L243.02 391.293H238.111L254.658 380.418L254.017 357.584L253.538 340.339L256.229 340.265L256.714 357.584L257.355 380.398L270.334 391.293H266.141Z" fill="#3F3D56"/>
<path d="M225.341 391.293L216.656 384.005L216.858 391.293H214.168L213.952 383.587L202.227 391.293H197.318L213.858 380.418L213.218 357.584L212.739 340.339L215.436 340.265L215.921 357.584L216.555 380.398L229.535 391.293H225.341Z" fill="#3F3D56"/>
<path d="M231.936 169.491C229.557 169.491 227.458 171.338 226.055 174.176C224.819 169.909 222.221 166.941 219.187 166.941C218.98 166.962 218.776 166.996 218.574 167.044C217.408 162.488 214.697 159.293 211.537 159.293C207.313 159.293 203.888 165 203.888 172.04C203.888 179.08 207.313 184.787 211.537 184.787C211.743 184.767 211.948 184.732 212.15 184.684C213.316 189.24 216.026 192.436 219.187 192.436C221.565 192.436 223.664 190.588 225.067 187.75C226.303 192.018 228.902 194.985 231.936 194.985C236.16 194.985 239.585 189.278 239.585 182.238C239.585 175.198 236.16 169.491 231.936 169.491Z" fill="#2E2D40"/>
<path d="M149.288 295.394C145.94 295.394 142.624 294.734 139.531 293.453C136.437 292.172 133.626 290.294 131.258 287.927C128.891 285.559 127.013 282.749 125.731 279.656C124.45 276.563 123.79 273.247 123.79 269.899V257.152C123.79 250.391 126.477 243.906 131.258 239.125C136.04 234.344 142.526 231.658 149.288 231.658V295.394Z" fill="#232236"/>
<path d="M312.033 231.658C315.382 231.658 318.697 232.317 321.791 233.598C324.885 234.879 327.695 236.757 330.063 239.125C332.431 241.492 334.309 244.303 335.59 247.396C336.872 250.489 337.531 253.804 337.531 257.152V269.899C337.531 273.247 336.872 276.563 335.59 279.656C334.309 282.749 332.431 285.559 330.063 287.927C327.695 290.294 324.885 292.172 321.791 293.453C318.697 294.734 315.382 295.394 312.033 295.394V231.658H312.033Z" fill="#232236"/>
<path d="M325.395 259.155H321.349C321.349 207.855 279.608 166.12 228.301 166.12C176.994 166.12 135.253 207.855 135.253 259.155H131.207C131.207 205.625 174.763 162.075 228.301 162.075C281.839 162.075 325.395 205.625 325.395 259.155Z" fill="#232236"/>
<path d="M89.4671 181.193L89.4678 181.192L87.5672 180.4L79.5479 177.011L76.6734 175.796L76.4528 176.353L72.5915 186.101L83.4585 190.7L83.5155 190.751L82.7832 192.478C82.683 192.636 82.5974 192.803 82.5277 192.976C82.0147 194.271 82.9836 195.559 83.8995 195.922C84.8154 196.285 85.9738 195.529 86.4867 194.234C86.9927 192.956 86.4983 191.334 85.6057 190.942L85.6065 190.94L83.7058 190.149L77.2041 187.621L80.9191 178.243L80.3684 178.025L76.6521 187.407L75.8482 187.094L79.579 177.676L79.6773 177.717L87.3198 180.952L87.3768 181.003L86.6446 182.73C86.5443 182.888 86.4588 183.054 86.3891 183.228C85.876 184.523 86.8449 185.811 87.7608 186.174C88.6767 186.536 89.8351 185.781 90.3481 184.486C90.8541 183.208 90.3596 181.585 89.4671 181.193Z" fill="#585670"/>
<path d="M127.08 205.125C123.135 202.87 123.924 197.921 123.924 197.921C123.825 194.706 121.169 195.161 121.169 195.161L120.202 195.382C119.753 195.174 119.258 195.082 118.764 195.116L117.293 195.364C120.642 196.15 120.367 198.952 120.367 198.952L120.836 202.227L112.061 198.687L113.069 196.312C113.208 196.093 113.327 195.861 113.424 195.62C114.136 193.821 112.79 192.032 111.518 191.528C110.246 191.025 108.637 192.074 107.925 193.873C107.222 195.647 107.909 197.901 109.149 198.446L109.147 198.448L111.787 199.547L111.807 199.485L127.08 205.125ZM122.624 199.37L122.905 202.505C121.911 201.111 121.445 199.41 121.588 197.704C121.564 197.098 121.36 196.512 121 196.023C121.553 196.377 121.997 196.877 122.284 197.468C122.57 198.059 122.688 198.717 122.624 199.37V199.37Z" fill="#585670"/>
<path d="M60.1423 158.761L60.1433 158.759L57.5036 157.66L46.4709 153.372L49.2554 150.895C49.8002 150.169 50.6046 149.681 51.5005 149.535C52.3964 149.388 53.3143 149.593 54.0623 150.108L53.1982 148.823C53.1982 148.823 51.5737 146.673 49.2998 148.948C49.2998 148.948 46.4862 153.095 42.0668 152.038L57.16 158.426L57.2392 158.497L56.2222 160.895C56.0829 161.115 55.9641 161.346 55.8673 161.587C55.1548 163.386 56.5005 165.175 57.7726 165.679C59.0446 166.183 60.6535 165.133 61.366 163.334C62.0687 161.56 61.3819 159.306 60.1423 158.761Z" fill="#585670"/>
<path d="M100.533 144.727L99.5161 147.124C99.3769 147.344 99.2581 147.575 99.1613 147.816C98.4488 149.615 99.7944 151.404 101.067 151.908C102.339 152.412 103.948 151.362 104.66 149.563C105.363 147.789 104.676 145.535 103.436 144.991L103.437 144.989L100.798 143.889L91.7673 140.379L96.9269 127.353L96.1622 127.051L91.0006 140.081L89.884 139.647L95.0657 126.566L95.2022 126.623L105.817 131.116L105.896 131.187L104.879 133.585C104.74 133.804 104.621 134.036 104.524 134.277C103.812 136.076 105.157 137.865 106.43 138.369C107.702 138.873 109.311 137.823 110.023 136.024C110.726 134.25 110.039 131.996 108.799 131.451L108.8 131.449L106.161 130.35L95.3729 125.79L95.3724 125.79L95.0225 125.642L91.0302 123.955L85.3608 138.268L100.454 144.655L100.533 144.727Z" fill="#585670"/>
<path d="M52.7025 71.4253L52.7043 71.4216L48.1601 69.5294L29.168 62.1475L33.9614 57.8834C33.9614 57.8834 37.1499 53.46 42.2361 56.5281L40.7487 54.3176C40.7487 54.3176 37.9522 50.6158 34.0378 54.5323C34.0378 54.5323 29.1944 61.6716 21.5866 59.8518L47.5686 70.8472L47.705 70.9707L45.9542 75.0984C45.7145 75.476 45.51 75.8748 45.3433 76.2898C44.1168 79.3861 46.4333 82.4661 48.6231 83.3333C50.8129 84.2005 53.5825 82.3933 54.8091 79.297C56.0188 76.2428 54.8365 72.3628 52.7025 71.4253Z" fill="#585670"/>
<path d="M66.6482 133.434C57.2164 128.042 59.1038 116.21 59.1038 116.21C58.8665 108.523 52.5149 109.611 52.5149 109.611L50.2032 110.139C49.1294 109.64 47.947 109.422 46.7659 109.503L43.2495 110.095C51.2565 111.976 50.5987 118.673 50.5987 118.673L51.7205 126.504L30.7398 118.041L33.1487 112.362C33.4816 111.838 33.7657 111.284 33.9973 110.708C35.7007 106.407 32.4834 102.129 29.4419 100.925C26.4004 99.7204 22.5538 102.23 20.8503 106.531C19.17 110.773 20.8121 116.162 23.776 117.464L23.7735 117.469L30.0849 120.097L30.1319 119.948L66.6482 133.434ZM55.9939 119.675L56.669 127.196C52.7076 121.938 53.5173 115.691 53.5173 115.691C53.4615 114.241 52.972 112.84 52.1122 111.67C56.6626 114.393 55.9938 119.675 55.9938 119.675H55.9939Z" fill="#585670"/>
</g>
<defs>
<clipPath id="clip0">
<rect width="463" height="403" fill="white"/>
</clipPath>
</defs>
</svg>
