<svg width="463" height="403" viewBox="0 0 463 403" fill="none" xmlns="http://www.w3.org/2000/svg">
<g clip-path="url(#clip0)">
<path d="M463 398.004L131.563 403L0 379.686H205.387L463 398.004Z" fill="#21202E"/>
<path d="M93.7922 382.457C93.7922 382.457 94.5677 366.209 110.466 368.097L93.7922 382.457Z" fill="#3F3D56"/>
<path d="M89.3 366.995C93.6946 366.995 97.257 363.433 97.257 359.039C97.257 354.645 93.6946 351.083 89.3 351.083C84.9054 351.083 81.343 354.645 81.343 359.039C81.343 363.433 84.9054 366.995 89.3 366.995Z" fill="#551B8B"/>
<path d="M90.2513 372.436H88.0052V388.157H90.2513V372.436Z" fill="#3F3D56"/>
<path d="M355.833 385.232C355.833 385.232 356.609 368.984 372.507 370.873L355.833 385.232Z" fill="#3F3D56"/>
<path d="M351.341 369.77C355.736 369.77 359.298 366.208 359.298 361.814C359.298 357.42 355.736 353.858 351.341 353.858C346.946 353.858 343.384 357.42 343.384 361.814C343.384 366.208 346.946 369.77 351.341 369.77Z" fill="#551B8B"/>
<path d="M352.292 375.212H350.046V390.932H352.292V375.212Z" fill="#3F3D56"/>
<path d="M394.14 388.008C394.14 388.008 394.915 371.76 410.814 373.648L394.14 388.008Z" fill="#3F3D56"/>
<path d="M389.648 372.546C394.042 372.546 397.605 368.984 397.605 364.59C397.605 360.196 394.042 356.634 389.648 356.634C385.253 356.634 381.691 360.196 381.691 364.59C381.691 368.984 385.253 372.546 389.648 372.546Z" fill="#551B8B"/>
<path d="M390.599 377.987H388.353V393.707H390.599V377.987Z" fill="#3F3D56"/>
<path d="M156.527 374.685C156.527 374.685 157.302 358.437 173.2 360.326L156.527 374.685Z" fill="#3F3D56"/>
<path d="M152.034 359.223C156.429 359.223 159.991 355.661 159.991 351.267C159.991 346.873 156.429 343.311 152.034 343.311C147.64 343.311 144.077 346.873 144.077 351.267C144.077 355.661 147.64 359.223 152.034 359.223Z" fill="#551B8B"/>
<path d="M152.986 364.665H150.74V380.385H152.986V364.665Z" fill="#3F3D56"/>
<path d="M38.275 377.461C38.275 377.461 39.0505 361.213 54.949 363.101L38.275 377.461Z" fill="#3F3D56"/>
<path d="M33.7828 361.999C38.1774 361.999 41.7399 358.437 41.7399 354.043C41.7399 349.649 38.1774 346.087 33.7828 346.087C29.3883 346.087 25.8258 349.649 25.8258 354.043C25.8258 358.437 29.3883 361.999 33.7828 361.999Z" fill="#551B8B"/>
<path d="M34.7342 367.44H32.4881V383.161H34.7342V367.44Z" fill="#3F3D56"/>
<path d="M230.661 349.227C278.54 349.227 317.354 310.418 317.354 262.545C317.354 214.673 278.54 175.864 230.661 175.864C182.782 175.864 143.968 214.673 143.968 262.545C143.968 310.418 182.782 349.227 230.661 349.227Z" fill="#353349"/>
<path d="M176.082 269.504C178.235 266.926 180.928 264.853 183.97 263.431C187.013 262.008 190.33 261.271 193.689 261.271C197.047 261.271 200.365 262.008 203.407 263.431C206.449 264.853 209.142 266.926 211.295 269.504C214.979 265.987 217.526 261.448 218.606 256.471C219.687 251.494 219.252 246.308 217.357 241.581C215.463 236.853 212.196 232.801 207.977 229.948C203.759 227.094 198.782 225.568 193.689 225.568C188.595 225.568 183.619 227.094 179.4 229.948C175.182 232.801 171.914 236.853 170.02 241.581C168.126 246.308 167.691 251.494 168.771 256.471C169.851 261.448 172.398 265.987 176.082 269.504Z" fill="white"/>
<path d="M244.927 269.504C247.08 266.926 249.772 264.853 252.815 263.431C255.857 262.008 259.175 261.271 262.533 261.271C265.892 261.271 269.209 262.008 272.252 263.431C275.294 264.853 277.987 266.926 280.14 269.504C283.824 265.987 286.37 261.448 287.451 256.471C288.531 251.494 288.096 246.308 286.202 241.581C284.307 236.853 281.04 232.801 276.822 229.948C272.603 227.094 267.627 225.568 262.533 225.568C257.44 225.568 252.463 227.094 248.244 229.948C244.026 232.801 240.759 236.853 238.864 241.581C236.97 246.308 236.535 251.494 237.615 256.471C238.696 261.448 241.242 265.987 244.927 269.504Z" fill="white"/>
<path d="M201.991 248.152C206.835 248.152 210.762 244.225 210.762 239.382C210.762 234.538 206.835 230.612 201.991 230.612C197.147 230.612 193.22 234.538 193.22 239.382C193.22 244.225 197.147 248.152 201.991 248.152Z" fill="#3F3D56"/>
<path d="M270.833 248.152C275.677 248.152 279.604 244.225 279.604 239.382C279.604 234.538 275.677 230.612 270.833 230.612C265.988 230.612 262.062 234.538 262.062 239.382C262.062 244.225 265.988 248.152 270.833 248.152Z" fill="#3F3D56"/>
<path d="M168.191 294.414C173.824 294.414 178.39 289.848 178.39 284.216C178.39 278.584 173.824 274.018 168.191 274.018C162.558 274.018 157.992 278.584 157.992 284.216C157.992 289.848 162.558 294.414 168.191 294.414Z" fill="#FF6584"/>
<path d="M285.481 294.414C291.114 294.414 295.68 289.848 295.68 284.216C295.68 278.584 291.114 274.018 285.481 274.018C279.848 274.018 275.282 278.584 275.282 284.216C275.282 289.848 279.848 294.414 285.481 294.414Z" fill="#FF6584"/>
<path d="M226.836 263.82L219.187 296.963L231.935 284.216L226.836 263.82Z" fill="#FF6584"/>
<path d="M266.14 391.293L257.456 384.005L257.658 391.293H254.961L254.746 383.587L243.02 391.293H238.111L254.658 380.418L254.017 357.584L253.538 340.339L256.229 340.265L256.714 357.584L257.355 380.398L270.334 391.293H266.14Z" fill="#3F3D56"/>
<path d="M225.341 391.293L216.656 384.005L216.858 391.293H214.168L213.952 383.587L202.227 391.293H197.318L213.858 380.418L213.218 357.584L212.739 340.339L215.436 340.265L215.921 357.584L216.555 380.398L229.535 391.293H225.341Z" fill="#3F3D56"/>
<path d="M231.936 169.491C229.557 169.491 227.458 171.338 226.055 174.176C224.819 169.909 222.221 166.941 219.187 166.941C218.98 166.962 218.776 166.996 218.574 167.044C217.408 162.488 214.697 159.293 211.537 159.293C207.313 159.293 203.888 165 203.888 172.04C203.888 179.08 207.313 184.787 211.537 184.787C211.743 184.767 211.948 184.732 212.15 184.684C213.316 189.24 216.026 192.436 219.187 192.436C221.565 192.436 223.664 190.588 225.067 187.75C226.303 192.018 228.902 194.985 231.936 194.985C236.16 194.985 239.585 189.278 239.585 182.238C239.585 175.198 236.16 169.491 231.936 169.491Z" fill="#2E2D40"/>
<path d="M149.288 295.394C145.94 295.394 142.624 294.734 139.531 293.453C136.437 292.172 133.626 290.294 131.258 287.927C128.891 285.559 127.013 282.749 125.731 279.656C124.45 276.563 123.79 273.247 123.79 269.899V257.152C123.79 250.391 126.477 243.906 131.258 239.125C136.04 234.344 142.526 231.658 149.288 231.658V295.394Z" fill="#232236"/>
<path d="M312.033 231.658C315.382 231.658 318.697 232.317 321.791 233.598C324.885 234.879 327.695 236.757 330.063 239.125C332.431 241.492 334.309 244.303 335.59 247.396C336.872 250.489 337.531 253.804 337.531 257.152V269.899C337.531 273.247 336.872 276.563 335.59 279.656C334.309 282.749 332.431 285.559 330.063 287.927C327.695 290.294 324.885 292.172 321.791 293.453C318.697 294.734 315.382 295.394 312.033 295.394V231.658H312.033Z" fill="#232236"/>
<path d="M325.395 259.155H321.349C321.349 207.855 279.608 166.12 228.301 166.12C176.994 166.12 135.253 207.855 135.253 259.155H131.207C131.207 205.625 174.763 162.075 228.301 162.075C281.839 162.075 325.395 205.625 325.395 259.155Z" fill="#232236"/>
<path d="M276.422 127.573L276.42 127.572L277.38 125.751L281.399 118.027L282.84 115.259L283.365 115.548L292.553 120.598L287.111 131.068L287.1 131.144L288.764 132.008C288.942 132.066 289.114 132.14 289.279 132.229C290.499 132.9 290.574 134.51 290.099 135.373C289.625 136.237 288.25 136.393 287.03 135.722C285.826 135.06 285.172 133.494 285.61 132.623L285.609 132.622L286.569 130.801L289.968 124.71L281.128 119.851L281.413 119.332L290.257 124.193L290.677 123.44L281.799 118.56L281.75 118.654L277.922 126.018L277.911 126.094L279.576 126.957C279.754 127.015 279.926 127.089 280.09 127.178C281.311 127.849 281.385 129.46 280.911 130.323C280.436 131.186 279.062 131.342 277.841 130.671C276.637 130.009 275.984 128.443 276.422 127.573Z" fill="#585670"/>
<path d="M240 145.391C243.945 143.136 243.155 138.187 243.155 138.187C243.255 134.972 245.911 135.427 245.911 135.427L246.878 135.648C247.327 135.439 247.822 135.348 248.316 135.382L249.786 135.629C246.438 136.416 246.713 139.217 246.713 139.217L246.243 142.493L255.019 138.953L254.011 136.578C253.872 136.359 253.753 136.127 253.656 135.886C252.944 134.087 254.289 132.298 255.562 131.794C256.834 131.29 258.442 132.34 259.155 134.139C259.858 135.913 259.171 138.167 257.931 138.712L257.932 138.714L255.293 139.813L255.273 139.751L240 145.391ZM244.456 139.636L244.175 142.771C245.168 141.377 245.635 139.676 245.492 137.97C245.515 137.364 245.72 136.778 246.08 136.288C245.527 136.643 245.083 137.143 244.796 137.734C244.51 138.324 244.392 138.983 244.456 139.636V139.636Z" fill="#585670"/>
<path d="M306.937 99.0273L306.936 99.0252L309.576 97.926L320.609 93.6378L317.824 91.1608C317.28 90.4346 316.475 89.9472 315.579 89.8005C314.683 89.6537 313.765 89.859 313.017 90.3734L313.882 89.0893C313.882 89.0893 315.506 86.939 317.78 89.2141C317.78 89.2141 320.594 93.3613 325.013 92.3042L309.92 98.6915L309.84 98.7633L310.858 101.161C310.997 101.38 311.116 101.612 311.212 101.853C311.925 103.652 310.579 105.441 309.307 105.945C308.035 106.449 306.426 105.399 305.714 103.6C305.011 101.826 305.698 99.572 306.937 99.0273Z" fill="#585670"/>
<path d="M268.828 85.5018L270.555 87.4515C270.757 87.6152 270.943 87.797 271.112 87.9947C272.359 89.4734 271.653 91.5976 270.607 92.4799C269.561 93.3621 267.702 92.8786 266.454 91.4C265.224 89.9415 265.158 87.5862 266.16 86.6755L266.158 86.6739L268.311 84.7921L275.756 78.592L266.721 67.8838L267.35 67.3534L276.388 78.0656L277.309 77.299L268.235 66.545L268.124 66.6432L259.489 74.2784L259.437 74.3716L261.164 76.3214C261.366 76.485 261.552 76.6669 261.721 76.8646C262.968 78.3433 262.262 80.4676 261.216 81.3498C260.17 82.232 258.311 81.7486 257.063 80.2699C255.833 78.8114 255.767 76.456 256.769 75.5454L256.767 75.5437L258.92 73.662L267.697 65.9076L267.697 65.9072L267.982 65.6557L271.23 62.786L281.158 74.5519L268.881 85.4085L268.828 85.5018Z" fill="#585670"/>
<path d="M321.383 21.1175L321.379 21.1163L323.069 16.4932L330.519 -2.47216L324.135 -1.83975C324.135 -1.83975 318.722 -2.49511 317.529 3.32375L316.912 0.731693C316.912 0.731693 316.087 -3.83375 321.62 -4.05565C321.62 -4.05565 330.152 -2.77546 333.972 -9.60148L324.439 16.9518L324.437 17.1359L328.658 18.6475C329.098 18.7273 329.53 18.8474 329.948 19.0062C333.056 20.204 333.749 23.9949 332.902 26.1925C332.054 28.3901 328.848 29.2007 325.741 28.003C322.676 26.8214 320.625 23.3217 321.383 21.1175Z" fill="#585670"/>
<path d="M310.088 32.3017C314.341 42.2986 326.313 41.8058 326.313 41.8058C333.919 42.9391 332.097 49.1202 332.097 49.1202L331.303 51.3544C331.673 52.4791 331.752 53.679 331.533 54.8424L330.535 58.2657C329.602 50.0938 322.873 49.965 322.873 49.965L315.227 47.9365L321.182 69.7618L327.103 68.0326C327.663 67.7632 328.246 67.5458 328.846 67.3831C333.316 66.1934 337.189 69.8883 338.03 73.0496C338.871 76.211 335.929 79.7382 331.459 80.9278C327.05 82.1013 321.889 79.8411 320.942 76.7454L320.937 76.7473L319.064 70.1722L319.217 70.1429L310.088 32.3017ZM322.509 44.4898L315.118 42.941C319.877 47.4893 326.176 47.4146 326.176 47.4146C327.61 47.6394 328.944 48.2891 330.005 49.2797C327.832 44.4424 322.509 44.4899 322.509 44.4899L322.509 44.4898Z" fill="#585670"/>
<path d="M222.244 317.207C244.307 325.193 257.758 312.598 261.725 305.303" stroke="#2B293D"/>
</g>
<defs>
<clipPath id="clip0">
<rect width="463" height="403" fill="white"/>
</clipPath>
</defs>
</svg>
